<svg xmlns="http://www.w3.org/2000/svg" version="1.1" xmlns:xlink="http://www.w3.org/1999/xlink" xmlns:svgjs="http://svgjs.dev/svgjs" width="1920" height="1080" preserveAspectRatio="none" viewBox="0 0 1920 1080"><g mask="url(&quot;#SvgjsMask1138&quot;)" fill="none"><rect width="1920" height="1080" x="0" y="0" fill="#0e2a47"></rect><path d="M46 1080L1126 0L1316.5 0L236.5 1080z" fill="url(&quot;#SvgjsLinearGradient1139&quot;)"></path><path d="M711.6 1080L1791.6 0L1898.1 0L818.1 1080z" fill="url(&quot;#SvgjsLinearGradient1139&quot;)"></path><path d="M1829 1080L749 0L500 0L1580 1080z" fill="url(&quot;#SvgjsLinearGradient1140&quot;)"></path><path d="M1274.4 1080L194.4000000000001 0L92.40000000000009 0L1172.4 1080z" fill="url(&quot;#SvgjsLinearGradient1140&quot;)"></path><path d="M876.2774150006119 1080L1920 36.27741500061188L1920 1080z" fill="url(&quot;#SvgjsLinearGradient1139&quot;)"></path><path d="M0 1080L1043.7225849993881 1080L 0 36.27741500061188z" fill="url(&quot;#SvgjsLinearGradient1140&quot;)"></path></g><defs><mask id="SvgjsMask1138"><rect width="1920" height="1080" fill="#ffffff"></rect></mask><linearGradient x1="0%" y1="100%" x2="100%" y2="0%" id="SvgjsLinearGradient1139"><stop stop-color="rgba(255, 208, 39, 0.5)" offset="0"></stop><stop stop-opacity="0" stop-color="rgba(255, 208, 39, 0.5)" offset="0.66"></stop></linearGradient><linearGradient x1="100%" y1="100%" x2="0%" y2="0%" id="SvgjsLinearGradient1140"><stop stop-color="rgba(255, 208, 39, 0.5)" offset="0"></stop><stop stop-opacity="0" stop-color="rgba(255, 208, 39, 0.5)" offset="0.66"></stop></linearGradient></defs></svg>